<svg width="20" height="23" viewBox="0 0 20 23" fill="none" xmlns="http://www.w3.org/2000/svg">
<path d="M19.0413 23H16.9256V18.1648C16.9247 17.4132 16.5949 16.6925 16.0084 16.1609C15.422 15.6294 14.6269 15.3305 13.7975 15.3297H5.24375C4.4144 15.3305 3.61925 15.6294 3.03281 16.1609C2.44637 16.6925 2.11654 17.4132 2.1157 18.1648V23H0V18.1648C0.00167968 16.9048 0.554684 15.6968 1.53771 14.8058C2.52074 13.9149 3.85354 13.4136 5.24375 13.4121H13.7975C15.1877 13.4136 16.5205 13.9149 17.5035 14.8058C18.4866 15.6968 19.0396 16.9048 19.0413 18.1648V23Z" fill="black"/>
<path d="M9.31458 11.9022C8.08653 11.9022 6.88606 11.5532 5.86498 10.8992C4.8439 10.2453 4.04806 9.31589 3.57811 8.22847C3.10816 7.14105 2.9852 5.94449 3.22478 4.79009C3.46436 3.63569 4.05572 2.57531 4.92408 1.74304C5.79244 0.910761 6.89879 0.343975 8.10324 0.114351C9.30769 -0.115273 10.5561 0.00257852 11.6907 0.453002C12.8253 0.903426 13.795 1.66619 14.4773 2.64484C15.1595 3.62349 15.5237 4.77408 15.5237 5.95109C15.522 7.52893 14.8673 9.0417 13.7033 10.1574C12.5392 11.2731 10.9608 11.9006 9.31458 11.9022ZM9.31458 1.9837C8.49588 1.9837 7.69557 2.21638 7.01485 2.65232C6.33413 3.08827 5.80357 3.70789 5.49027 4.43283C5.17696 5.15778 5.09499 5.95549 5.25471 6.72509C5.41443 7.49469 5.80867 8.20161 6.38758 8.75646C6.96648 9.31131 7.70405 9.68917 8.50702 9.84225C9.30998 9.99533 10.1423 9.91676 10.8987 9.61648C11.655 9.3162 12.3015 8.80769 12.7564 8.15525C13.2112 7.50282 13.454 6.73576 13.454 5.95109C13.454 4.89887 13.0179 3.88975 12.2416 3.14572C11.4653 2.40169 10.4124 1.9837 9.31458 1.9837Z" fill="black"/>
</svg>
