<svg width="29" height="29" viewBox="0 0 29 29" fill="none" xmlns="http://www.w3.org/2000/svg">
<g clip-path="url(#clip0_6008_148)">
<path d="M14.1801 2.55352C17.9688 2.55352 18.4175 2.57014 19.9075 2.63661C21.2923 2.69754 22.0401 2.93018 22.5386 3.12405C23.1977 3.37885 23.6741 3.68904 24.1671 4.18202C24.6656 4.68054 24.9703 5.15136 25.2251 5.81052C25.4189 6.30903 25.6516 7.06235 25.7125 8.44159C25.779 9.93714 25.7956 10.3858 25.7956 14.169C25.7956 17.9578 25.779 18.4064 25.7125 19.8964C25.6516 21.2812 25.4189 22.029 25.2251 22.5275C24.9703 23.1867 24.6601 23.663 24.1671 24.156C23.6686 24.6545 23.1977 24.9592 22.5386 25.214C22.0401 25.4079 21.2868 25.6405 19.9075 25.7014C18.412 25.7679 17.9633 25.7845 14.1801 25.7845C10.3914 25.7845 9.94268 25.7679 8.45267 25.7014C7.06789 25.6405 6.32011 25.4079 5.82159 25.214C5.16244 24.9592 4.68608 24.649 4.1931 24.156C3.69458 23.6575 3.38993 23.1867 3.13513 22.5275C2.94126 22.029 2.70862 21.2757 2.64769 19.8964C2.58122 18.4009 2.5646 17.9522 2.5646 14.169C2.5646 10.3803 2.58122 9.93161 2.64769 8.44159C2.70862 7.05681 2.94126 6.30903 3.13513 5.81052C3.38993 5.15136 3.70012 4.675 4.1931 4.18202C4.69162 3.6835 5.16244 3.37885 5.82159 3.12405C6.32011 2.93018 7.07343 2.69754 8.45267 2.63661C9.94268 2.57014 10.3914 2.55352 14.1801 2.55352ZM14.1801 0C10.3304 0 9.84852 0.0166173 8.33634 0.0830865C6.82971 0.149556 5.7939 0.393276 4.89656 0.742239C3.96046 1.10782 3.16837 1.58972 2.38181 2.38181C1.58972 3.16837 1.10782 3.96046 0.742239 4.89103C0.393276 5.7939 0.149556 6.82417 0.0830865 8.33081C0.0166173 9.84852 0 10.3304 0 14.1801C0 18.0298 0.0166173 18.5117 0.0830865 20.0238C0.149556 21.5305 0.393276 22.5663 0.742239 23.4636C1.10782 24.3997 1.58972 25.1918 2.38181 25.9784C3.16837 26.7649 3.96046 27.2524 4.89103 27.6124C5.7939 27.9614 6.82417 28.2051 8.33081 28.2716C9.84298 28.338 10.3249 28.3547 14.1746 28.3547C18.0242 28.3547 18.5061 28.338 20.0183 28.2716C21.5249 28.2051 22.5608 27.9614 23.4581 27.6124C24.3887 27.2524 25.1807 26.7649 25.9673 25.9784C26.7538 25.1918 27.2413 24.3997 27.6013 23.4692C27.9503 22.5663 28.194 21.536 28.2605 20.0294C28.327 18.5172 28.3436 18.0353 28.3436 14.1856C28.3436 10.336 28.327 9.85406 28.2605 8.34188C28.194 6.83525 27.9503 5.79944 27.6013 4.9021C27.2524 3.96046 26.7705 3.16837 25.9784 2.38181C25.1918 1.59526 24.3997 1.10782 23.4692 0.747778C22.5663 0.398815 21.536 0.155095 20.0294 0.0886256C18.5117 0.0166173 18.0298 0 14.1801 0Z" fill="white"/>
<path d="M14.1784 6.89648C10.1571 6.89648 6.89453 10.159 6.89453 14.1804C6.89453 18.2018 10.1571 21.4643 14.1784 21.4643C18.1998 21.4643 21.4624 18.2018 21.4624 14.1804C21.4624 10.159 18.1998 6.89648 14.1784 6.89648ZM14.1784 18.9053C11.5695 18.9053 9.45359 16.7893 9.45359 14.1804C9.45359 11.5715 11.5695 9.45555 14.1784 9.45555C16.7874 9.45555 18.9033 11.5715 18.9033 14.1804C18.9033 16.7893 16.7874 18.9053 14.1784 18.9053Z" fill="white"/>
<path d="M23.4518 6.60773C23.4518 7.54938 22.6874 8.30824 21.7513 8.30824C20.8096 8.30824 20.0508 7.54384 20.0508 6.60773C20.0508 5.66608 20.8152 4.90723 21.7513 4.90723C22.6874 4.90723 23.4518 5.67162 23.4518 6.60773Z" fill="white"/>
</g>
<defs>
<clipPath id="clip0_6008_148">
<rect width="28.3602" height="28.3602" fill="white"/>
</clipPath>
</defs>
</svg>
