<svg width="139" height="89" viewBox="0 0 139 89" fill="none" xmlns="http://www.w3.org/2000/svg">
<path d="M0.183079 53.9212C0.846166 52.9941 24.7936 48.494 29.7809 47.4671C36.015 46.1834 53.0309 44.5252 61.0272 44.347C69.0235 44.1687 79.8053 43.9864 86.4563 44.6858C89.6777 45.0245 97.0107 45.595 99.1519 45.595C101.293 45.595 105.88 46.011 108.38 45.595C111.487 45.078 115.883 44.347 119.806 44.347C122.155 44.347 124.645 44.8997 125.339 49.4996C125.997 53.8677 125.699 58.6299 124.694 60.0722C123.69 61.5145 121.909 63.0496 119.787 63.0496C117.05 63.0496 105.31 61.0528 101.786 60.8745C98.2613 60.6962 81.1506 59.0559 73.1354 59.0559C65.1201 59.0559 51.0613 59.2604 39.4704 61.1182C27.7535 62.9961 15.9742 65.1119 13.7003 65.5219C6.02615 66.9058 4.38986 69.6139 3.23382 69.0224C1.64231 68.2079 1.45264 65.9736 1.09266 63.3349C0.85335 61.5807 -0.480008 54.8483 0.183079 53.9212Z" fill="#926FE4"/>
<path d="M83.6077 54.2493C92.2402 54.2493 99.1327 61.0518 99.1327 70.4687C99.1327 81.1802 91.0667 85.8125 83.7426 85.8125C79.4533 85.8125 74.9078 84.2515 71.6841 81.1294C69.0943 78.6546 67.3408 75.9006 67.3408 70.7479C67.3408 59.6811 76.378 54.2493 83.6077 54.2493ZM84.5249 53.4751C74.5166 53.4751 66.4102 60.2269 66.4102 71.3952C66.4102 81.3578 73.8826 88.9853 84.7677 88.9853C94.9783 88.9853 102.788 82.1828 102.788 71.5729C102.788 60.3157 94.5871 53.4751 84.5249 53.4751ZM83.7021 81.1802C90.2439 81.1802 94.3443 76.7636 94.3443 70.291C94.3443 63.1712 89.0165 58.8435 83.5537 58.8435C78.3742 58.8435 72.2775 62.7524 72.2775 70.291C72.2775 76.6748 76.8636 81.1802 83.7021 81.1802ZM75.9329 70.6591C75.9329 62.9809 81.4496 61.0518 84.8216 61.0518C89.3672 61.0518 93.4136 64.1358 93.4136 70.5195C93.4136 77.1316 88.3825 80.3933 84.2416 80.3933C81.2068 80.3933 75.9329 78.515 75.9329 70.6591Z" fill="black"/>
<path d="M106.273 54.4036V86.246L108.809 89H115.216V67.7802L131.416 89H138.402V56.5611L135.624 54.4036H129.473V72.1333L116.875 55.7869L113.166 54.4036H106.273ZM107.11 86.0175V55.1397H112.478L130.296 78.1997V55.1397H135.179V86.0175H130.296L111.992 62.3102V86.0175H107.11Z" fill="black"/>
<path d="M22.6964 20.5876L23.8847 20.5152C27.2416 20.3108 29.5675 20.5061 30.8624 21.1011C32.9922 21.4835 35.1891 22.94 37.4531 25.4706C38.0126 26.7438 38.3085 27.6152 38.3408 28.085C38.4175 29.1989 37.9171 30.7455 36.8397 32.7248C34.7482 34.8602 32.7438 36.2019 30.8263 36.75C30.8319 36.8305 30.5373 37.0573 29.9428 37.4304C32.4144 45.5278 34.3577 50.5509 35.7727 52.4997C36.9274 54.5857 37.8235 55.8519 38.461 56.2983C39.1119 56.7438 39.4383 56.98 39.4401 57.0068C39.4429 57.0471 39.626 57.2583 39.9894 57.6405C40.3527 58.0227 40.0501 58.2298 39.0815 58.2618C38.1272 58.3064 37.0714 57.9529 35.914 57.2013C34.7567 56.4497 32.8477 53.9851 30.1873 49.8076L27.7443 45.1653C26.9192 43.167 26.1647 41.1173 25.4808 39.0161C22.9494 39.6554 21.6952 40.1429 21.7183 40.4784C20.6033 45.0475 19.8714 48.7174 19.5226 51.4879C19.0195 52.408 18.2124 53.0232 17.1011 53.3335C16.0865 53.6783 15.4753 53.1225 15.2672 51.6662L16.1209 44.9633C16.9987 40.8668 18.0527 35.9981 19.2828 30.3573L19.8517 26.8658L19.3481 26.8965C17.2857 27.4937 16.0196 27.8067 15.5496 27.8353C14.0452 28.1156 13.105 28.2672 12.7291 28.2901L12.5276 28.3023C12.2994 28.3162 11.5567 28.3008 10.2996 28.2561C9.51909 27.8858 8.78326 27.2837 8.09217 26.4498C7.38765 25.6167 7.14239 24.9915 7.35639 24.5742C7.56948 24.1434 7.91771 23.9133 8.4011 23.8839C8.87107 23.8552 11.5866 23.0497 16.5476 21.4673C18.7535 20.9961 20.8031 20.7028 22.6964 20.5876ZM23.8093 25.5938C23.9579 27.7546 23.4313 31.7623 22.2294 37.6171C22.4711 37.6024 22.5938 37.6219 22.5975 37.6755C23.336 37.6306 24.4457 37.1991 25.9266 36.3812C26.5619 36.2078 27.5008 35.6452 28.7432 34.6935C28.9984 34.678 29.4091 34.3767 29.9755 33.7897C33.2472 31.3668 34.8106 29.1018 34.6657 26.9947L34.5882 25.8674C34.5642 25.5185 33.8595 25.0762 32.4743 24.5406C31.5697 24.3262 30.7976 24.1778 30.1582 24.0954C26.7146 24.8037 24.5983 25.3032 23.8093 25.5938ZM43.8778 33.307L46.7378 33.1329C47.7962 33.621 48.3346 33.9992 48.353 34.2677L48.4209 35.2541C48.1564 37.6825 45.9501 39.9125 41.802 41.9441L41.6208 41.9551L41.6761 42.7604C42.4617 43.7907 43.3244 44.2772 44.2643 44.22L44.4456 44.209C45.8869 44.1886 47.8325 43.1671 50.2823 41.1447L50.4725 41.5576L50.5002 41.9602C48.2521 44.5634 46.0204 45.9324 43.8048 46.0673C40.086 45.7143 38.131 44.1487 37.9399 41.3706C38.3754 38.487 39.3241 36.401 40.7861 35.1125C42.1758 33.9497 43.2064 33.3479 43.8778 33.307ZM41.4671 39.7206L41.4823 39.942C43.5498 39.2231 45.0625 37.9855 46.0204 36.2291L46.1525 35.7965L46.14 35.6153L45.9498 35.2024C42.8376 36.4161 41.3434 37.9222 41.4671 39.7206ZM65.3387 16.2727C66.95 16.1746 68.1426 16.6545 68.9165 17.7125C68.6706 17.8622 68.4738 17.9416 68.3261 17.9506C67.9098 17.976 67.3496 17.8686 66.6454 17.6284C65.1416 17.72 63.4464 18.8542 61.5601 21.031C59.851 23.6283 57.8844 28.9501 55.6601 36.9965C55.6657 37.077 55.5596 37.4946 55.3418 38.249C57.3415 38.5046 59.0065 38.4032 60.3368 37.9449L60.912 37.4853L61.1425 37.8958L61.2532 39.5063C61.2726 39.7881 61.1413 39.9377 60.8593 39.9548C59.4225 40.4331 57.4957 40.5505 55.0788 40.3068C53.3426 50.1563 52.6111 57.4582 52.8842 62.2124C52.6785 64.516 52.2909 65.8401 51.7213 66.1847L50.6941 66.2473C50.3987 66.2653 50.0877 65.6643 49.7611 64.4443C49.3463 62.138 49.0713 59.0214 48.936 55.0944C48.8007 51.1674 49.3737 45.7754 50.655 38.9185L47.7328 37.6005C46.9432 36.3144 47.8081 36.1472 50.3276 37.0989L51.0012 37.4824C53.9397 23.7457 58.7189 16.6758 65.3387 16.2727ZM66.1223 18.5498C68.9905 19.2781 70.4439 19.924 70.4827 20.4877C70.7781 20.4697 71.1389 21.3035 71.5649 22.9892C71.5769 23.1636 71.3973 24.1786 71.026 26.0341C70.6547 27.8895 69.8762 30.8816 68.6904 35.0104C67.5181 39.1383 66.2861 43.1823 64.9943 47.1423C64.4824 48.5211 64.2609 50.1047 64.33 51.8929C64.6243 52.6432 65.2146 52.9913 66.1008 52.9374L66.6043 52.9067C67.1414 52.874 67.7235 52.7105 68.3504 52.4163L68.3588 52.5371C68.4924 53.4993 67.9787 54.0696 66.8179 54.2481C65.6715 54.4392 64.542 54.1913 63.4295 53.5043C62.3171 52.8174 61.711 51.7492 61.6113 50.2997C61.1695 48.7768 60.9902 47.1503 61.0734 45.4201C61.1558 43.6766 62.6311 36.7001 65.4994 24.4906C65.8381 23.3379 66.0868 21.9548 66.2455 20.3414C66.0451 19.9763 65.92 19.4313 65.8701 18.7066L66.1223 18.5498ZM75.4996 31.3815L78.3597 31.2074C79.418 31.6955 79.9564 32.0737 79.9749 32.3422L80.0427 33.3286C79.7782 35.757 77.572 37.987 73.4239 40.0186L73.2426 40.0296L73.298 40.8349C74.0835 41.8652 74.9462 42.3517 75.8861 42.2945L76.0674 42.2835C77.5087 42.2631 79.4543 41.2416 81.9041 39.2192L82.0943 39.6321L82.122 40.0347C79.874 42.6379 77.6422 44.0069 75.4266 44.1418C71.7078 43.7888 69.7528 42.2232 69.5618 39.4451C69.9972 36.5615 70.9459 34.4755 72.4079 33.187C73.7976 32.0242 74.8282 31.4224 75.4996 31.3815ZM73.0889 37.7951L73.1041 38.0165C75.1716 37.2976 76.6843 36.06 77.6422 34.3036L77.7743 33.871L77.7618 33.6898L77.5716 33.2769C74.4594 34.4906 72.9652 35.9967 73.0889 37.7951ZM89.0862 29.5435L92.49 29.3362C93.7553 29.8926 94.3977 30.3117 94.417 30.5935C94.0405 31.1959 92.6441 31.7729 90.228 32.3243C87.8119 32.8757 86.4997 34.9704 86.2915 38.6084L86.3386 39.2928C86.381 39.9102 86.6379 40.5077 87.1091 41.0855C87.5803 41.6633 88.3665 41.9186 89.4675 41.8516L89.7092 41.8369C91.077 41.7266 93.6389 40.4521 97.3949 38.0131L97.6281 38.4639L97.6586 38.9068C94.4807 42.1056 91.5759 43.7852 88.9441 43.9454C84.4946 43.556 82.1619 41.7911 81.9459 38.6506C82.4781 35.4107 83.6107 33.0574 85.3436 31.5907C87.0196 30.2757 88.2671 29.5933 89.0862 29.5435ZM103.78 18.5208L104.928 18.4509C106.874 19.2893 108.162 20.2755 108.793 21.4096L109.263 22.0683L109.327 22.9943L109.312 25.7243C113.555 25.4659 116.477 24.9107 118.077 24.0586L118.664 23.7802C119.575 23.2935 119.692 23.8321 119.018 25.3961C118.343 26.9466 116.716 28.1036 114.14 28.8669C111.562 29.6169 109.578 29.8859 108.188 29.6741C105.448 36.1077 104.161 40.5256 104.326 42.9279L104.465 44.941C104.481 45.1692 104.697 45.567 105.113 46.1347C105.53 46.7023 106.188 46.9587 107.088 46.9039C108.001 46.8483 108.959 46.5676 109.962 46.0618C110.978 45.5417 111.935 44.85 112.833 43.9867L113.344 44.643L113.376 45.106C113.433 45.938 111.681 47.0353 108.121 48.3976L106.993 48.4663C104.16 48.6388 101.896 46.8023 100.202 42.9567L99.5979 40.9315L99.4263 38.4353C99.2712 36.1806 99.8279 33.1009 101.097 29.1962L101.081 28.9748C100.425 28.8395 99.1849 28.4568 97.3617 27.8266C95.1223 26.8309 93.6798 25.8541 93.0341 24.8961L93.4808 24.6263C95.8999 25.099 98.1267 25.4216 100.161 25.5942L101.531 25.5108L101.989 25.7053C102.894 23.3726 103.454 21.5124 103.668 20.1247L103.653 19.9032L103.334 18.7906L103.78 18.5208ZM120.371 36.8364C115.595 37.572 113.161 37.2822 113.071 35.967C112.98 34.6518 115.323 33.6263 120.1 32.8908C124.889 32.1409 127.329 32.4236 127.419 33.7389C127.51 35.0541 125.16 36.0866 120.371 36.8364Z" fill="black"/>
</svg>
