<svg xmlns="http://www.w3.org/2000/svg" version="1.1" xmlns:xlink="http://www.w3.org/1999/xlink" width="1000" height="1000"><style>
    #light-icon {
      display: inline;
    }
    #dark-icon {
      display: none;
    }

    @media (prefers-color-scheme: dark) {
      #light-icon {
        display: none;
      }
      #dark-icon {
        display: inline;
      }
    }
  </style><g id="light-icon"><svg xmlns="http://www.w3.org/2000/svg" version="1.1" xmlns:xlink="http://www.w3.org/1999/xlink" width="1000" height="1000"><g><g transform="matrix(1.953125,0,0,1.953125,0,0)"><svg xmlns="http://www.w3.org/2000/svg" version="1.1" xmlns:xlink="http://www.w3.org/1999/xlink" width="512" height="512"><svg width="512" height="512" viewBox="0 0 512 512" fill="none" xmlns="http://www.w3.org/2000/svg">
<path d="M0.677275 261.056C3.13027 257.626 91.7205 240.979 110.17 237.18C133.232 232.431 196.18 226.297 225.761 225.637C255.343 224.978 295.228 224.303 319.833 226.89C331.75 228.144 358.877 230.254 366.798 230.254C374.719 230.254 391.686 231.793 400.936 230.254C412.432 228.341 428.694 225.637 443.204 225.637C451.896 225.637 461.107 227.682 463.673 244.699C466.109 260.858 465.005 278.475 461.289 283.81C457.574 289.146 450.986 294.825 443.134 294.825C433.011 294.825 389.58 287.438 376.542 286.778C363.503 286.119 300.205 280.051 270.554 280.051C240.902 280.051 188.894 280.807 146.015 287.68C102.67 294.627 59.0941 302.454 50.6822 303.971C22.2929 309.09 16.2397 319.109 11.963 316.92C6.0755 313.907 5.37382 305.642 4.04215 295.88C3.15684 289.391 -1.77572 264.485 0.677275 261.056Z" fill="#926FE4"></path>
<path d="M309.296 262.269C341.23 262.269 366.728 287.434 366.728 322.271C366.728 361.896 336.889 379.033 309.795 379.033C293.927 379.033 277.111 373.258 265.186 361.708C255.605 352.553 249.119 342.365 249.119 323.304C249.119 282.364 282.55 262.269 309.296 262.269ZM312.689 259.405C275.664 259.405 245.676 284.382 245.676 325.698C245.676 362.553 273.319 390.77 313.587 390.77C351.359 390.77 380.25 365.605 380.25 326.355C380.25 284.711 349.912 259.405 312.689 259.405ZM309.645 361.896C333.845 361.896 349.014 345.558 349.014 321.613C349.014 295.275 329.305 279.265 309.096 279.265C289.935 279.265 267.381 293.725 267.381 321.613C267.381 345.229 284.347 361.896 309.645 361.896ZM280.904 322.975C280.904 294.57 301.312 287.434 313.786 287.434C330.602 287.434 345.571 298.843 345.571 322.459C345.571 346.919 326.959 358.985 311.641 358.985C300.414 358.985 280.904 352.037 280.904 322.975Z" fill="black"></path>
<path d="M393.145 262.84V380.636L402.525 390.824H426.227V312.325L486.154 390.824H512.001V270.821L501.722 262.84H478.969V328.428L432.364 267.957L418.642 262.84H393.145ZM396.238 379.791V265.563H416.098L482.013 350.87V265.563H500.076V379.791H482.013L414.301 292.089V379.791H396.238Z" fill="black"></path>
<path d="M445.301 197.853C427.631 200.574 418.629 199.502 418.294 194.637C417.959 189.771 426.627 185.978 444.297 183.257C462.014 180.483 471.04 181.529 471.374 186.394C471.709 191.26 463.018 195.079 445.301 197.853Z" fill="black"></path>
<path d="M383.915 130.097L388.162 129.838C395.359 132.94 400.124 136.588 402.457 140.783L404.196 143.22L404.432 146.646L404.378 156.745C420.075 155.789 430.883 153.735 436.801 150.583L438.975 149.553C442.343 147.753 442.779 149.745 440.284 155.531C437.786 161.267 431.77 165.547 422.237 168.371C412.701 171.145 405.362 172.14 400.221 171.357C390.086 195.157 385.324 211.5 385.935 220.387L386.447 227.834C386.505 228.678 387.305 230.15 388.846 232.25C390.387 234.35 392.822 235.299 396.15 235.096C399.527 234.89 403.072 233.852 406.785 231.981C410.543 230.057 414.083 227.498 417.405 224.304L419.293 226.732L419.411 228.445C419.622 231.523 413.143 235.582 399.972 240.622L395.799 240.876C385.318 241.514 376.944 234.72 370.679 220.494L368.442 213.002L367.807 203.767C367.234 195.427 369.293 184.034 373.986 169.589L373.93 168.77C371.501 168.269 366.914 166.854 360.17 164.522C351.886 160.839 346.549 157.225 344.16 153.681L345.813 152.683C354.762 154.432 363 155.625 370.526 156.264L375.592 155.955L377.288 156.675C380.635 148.045 382.706 141.164 383.5 136.03L383.444 135.211L382.263 131.095L383.915 130.097Z" fill="black"></path>
<path d="M329.561 170.874L342.153 170.107C346.834 172.165 349.21 173.715 349.282 174.758C347.889 176.987 342.723 179.121 333.785 181.161C324.847 183.201 319.993 190.95 319.223 204.408L319.397 206.94C319.554 209.224 320.504 211.434 322.247 213.572C323.99 215.709 326.899 216.654 330.972 216.406L331.866 216.351C336.926 215.943 346.403 211.228 360.298 202.206L361.161 203.873L361.274 205.512C349.517 217.345 338.771 223.559 329.035 224.152C312.575 222.711 303.946 216.182 303.147 204.564C305.116 192.579 309.305 183.873 315.716 178.447C321.916 173.583 326.531 171.058 329.561 170.874Z" fill="black"></path>
<path d="M279.304 177.673L289.885 177.029C293.8 178.834 295.792 180.234 295.86 181.227L296.111 184.876C295.133 193.86 286.971 202.109 271.625 209.625L270.955 209.665L271.16 212.644C274.066 216.456 277.257 218.256 280.734 218.044L281.405 218.003C286.737 217.928 293.934 214.149 302.997 206.667L303.701 208.195L303.803 209.684C295.487 219.314 287.231 224.379 279.034 224.878C265.277 223.572 258.045 217.78 257.338 207.503C258.949 196.836 262.459 189.119 267.867 184.352C273.008 180.051 276.821 177.824 279.304 177.673ZM270.386 201.399L270.443 202.218C278.091 199.559 283.687 194.98 287.231 188.483L287.719 186.883L287.673 186.212L286.97 184.685C275.456 189.175 269.929 194.746 270.386 201.399Z" fill="black"></path>
<path d="M244.608 130.204C255.219 132.898 260.596 135.288 260.739 137.373C261.832 137.307 263.166 140.391 264.743 146.627C264.787 147.272 264.122 151.027 262.749 157.891C261.375 164.755 258.495 175.824 254.109 191.098C249.772 206.368 245.214 221.328 240.436 235.978C238.542 241.079 237.723 246.937 237.978 253.552C239.067 256.328 241.25 257.616 244.529 257.416L246.392 257.303C248.378 257.182 250.532 256.577 252.851 255.488L252.882 255.935C253.376 259.495 251.476 261.605 247.182 262.265C242.941 262.972 238.762 262.055 234.647 259.513C230.531 256.972 228.289 253.02 227.921 247.658C226.286 242.025 225.623 236.007 225.931 229.607C226.235 223.157 231.693 197.349 242.304 152.181C243.557 147.917 244.477 142.801 245.064 136.832C244.323 135.481 243.86 133.465 243.675 130.784L244.608 130.204Z" fill="black"></path>
<path d="M241.714 121.78C247.674 121.417 252.086 123.193 254.949 127.107C254.04 127.661 253.312 127.954 252.765 127.987C251.225 128.081 249.153 127.684 246.548 126.796C240.984 127.134 234.714 131.33 227.735 139.383C221.413 148.991 214.138 168.679 205.909 198.445C205.93 198.743 205.537 200.287 204.732 203.079C212.129 204.024 218.289 203.649 223.21 201.953L225.338 200.253L226.19 201.772L226.6 207.73C226.672 208.772 226.186 209.325 225.143 209.389C219.828 211.158 212.7 211.592 203.759 210.691C197.336 247.128 194.63 274.14 195.64 291.727C194.879 300.249 193.445 305.148 191.338 306.423L187.538 306.654C186.446 306.721 185.295 304.497 184.087 299.984C182.552 291.452 181.535 279.923 181.034 265.396C180.534 250.868 182.654 230.921 187.394 205.555L176.583 200.679C173.662 195.922 176.862 195.303 186.182 198.824L188.674 200.242C199.545 149.425 217.225 123.271 241.714 121.78Z" fill="black"></path>
<path d="M162.324 184.796L172.904 184.152C176.819 185.958 178.811 187.357 178.879 188.35L179.13 191.999C178.152 200.983 169.99 209.232 154.645 216.748L153.974 216.789L154.179 219.768C157.085 223.579 160.277 225.379 163.754 225.167L164.424 225.126C169.756 225.051 176.954 221.272 186.016 213.791L186.72 215.318L186.823 216.808C178.506 226.438 170.25 231.502 162.054 232.001C148.297 230.695 141.065 224.904 140.358 214.626C141.968 203.959 145.478 196.242 150.887 191.475C156.028 187.174 159.84 184.948 162.324 184.796ZM153.406 208.522L153.462 209.341C161.111 206.682 166.707 202.104 170.25 195.606L170.739 194.006L170.693 193.336L169.989 191.808C158.476 196.298 152.948 201.869 153.406 208.522Z" fill="black"></path>
<path d="M83.9576 137.743L88.3537 137.475C100.772 136.719 109.376 137.442 114.167 139.643C122.045 141.057 130.173 146.446 138.548 155.807C140.618 160.517 141.713 163.741 141.832 165.479C142.115 169.599 140.264 175.321 136.279 182.643C128.542 190.543 121.127 195.506 114.033 197.533C114.054 197.831 112.964 198.67 110.765 200.051C119.908 230.006 127.097 248.588 132.331 255.798C136.603 263.514 139.918 268.198 142.277 269.85C144.685 271.498 145.892 272.372 145.899 272.471C145.909 272.62 146.586 273.401 147.93 274.815C149.275 276.229 148.155 276.995 144.572 277.113C141.042 277.278 137.136 275.971 132.854 273.19C128.573 270.41 121.511 261.292 111.669 245.838L102.632 228.665C99.5792 221.272 96.7881 213.69 94.2582 205.917C84.8936 208.282 80.2539 210.085 80.3393 211.326C76.2145 228.229 73.5069 241.805 72.2166 252.054C70.3557 255.458 67.3697 257.734 63.2586 258.882C59.5055 260.157 57.2441 258.101 56.4745 252.714L59.6325 227.918C62.88 212.763 66.7789 194.752 71.3294 173.885L73.4339 160.968L71.5712 161.082C63.9417 163.291 59.2577 164.449 57.5191 164.555C51.9538 165.592 48.4758 166.153 47.0849 166.237L46.3398 166.283C45.4954 166.334 42.748 166.277 38.0977 166.112C35.2101 164.742 32.488 162.514 29.9314 159.43C27.3251 156.348 26.4179 154.035 27.2095 152.491C27.9978 150.897 29.286 150.046 31.0743 149.937C32.8128 149.831 42.8585 146.851 61.2112 140.998C69.3716 139.254 76.9537 138.169 83.9576 137.743ZM88.0747 156.263C88.6244 164.256 86.6762 179.082 82.2301 200.741C83.1242 200.687 83.5781 200.759 83.5917 200.958C86.3237 200.791 90.4289 199.195 95.9073 196.169C98.2574 195.528 101.731 193.447 106.327 189.926C107.271 189.869 108.79 188.754 110.886 186.582C122.989 177.619 128.772 169.24 128.236 161.445L127.949 157.275C127.861 155.984 125.254 154.348 120.13 152.367C116.783 151.573 113.927 151.024 111.562 150.72C98.8226 153.34 90.9936 155.188 88.0747 156.263Z" fill="black"></path>
</svg></svg></g></g></svg></g><g id="dark-icon"><svg xmlns="http://www.w3.org/2000/svg" version="1.1" xmlns:xlink="http://www.w3.org/1999/xlink" width="1000" height="1000"><g clip-path="url(#SvgjsClipPath1046)"><rect width="1000" height="1000" fill="#ffffff"></rect><g transform="matrix(1.7578125,0,0,1.7578125,50,50)"><svg xmlns="http://www.w3.org/2000/svg" version="1.1" xmlns:xlink="http://www.w3.org/1999/xlink" width="512" height="512"><svg width="512" height="512" viewBox="0 0 512 512" fill="none" xmlns="http://www.w3.org/2000/svg">
<path d="M0.677275 261.056C3.13027 257.626 91.7205 240.979 110.17 237.18C133.232 232.431 196.18 226.297 225.761 225.637C255.343 224.978 295.228 224.303 319.833 226.89C331.75 228.144 358.877 230.254 366.798 230.254C374.719 230.254 391.686 231.793 400.936 230.254C412.432 228.341 428.694 225.637 443.204 225.637C451.896 225.637 461.107 227.682 463.673 244.699C466.109 260.858 465.005 278.475 461.289 283.81C457.574 289.146 450.986 294.825 443.134 294.825C433.011 294.825 389.58 287.438 376.542 286.778C363.503 286.119 300.205 280.051 270.554 280.051C240.902 280.051 188.894 280.807 146.015 287.68C102.67 294.627 59.0941 302.454 50.6822 303.971C22.2929 309.09 16.2397 319.109 11.963 316.92C6.0755 313.907 5.37382 305.642 4.04215 295.88C3.15684 289.391 -1.77572 264.485 0.677275 261.056Z" fill="#926FE4"></path>
<path d="M309.296 262.269C341.23 262.269 366.728 287.434 366.728 322.271C366.728 361.896 336.889 379.033 309.795 379.033C293.927 379.033 277.111 373.258 265.186 361.708C255.605 352.553 249.119 342.365 249.119 323.304C249.119 282.364 282.55 262.269 309.296 262.269ZM312.689 259.405C275.664 259.405 245.676 284.382 245.676 325.698C245.676 362.553 273.319 390.77 313.587 390.77C351.359 390.77 380.25 365.605 380.25 326.355C380.25 284.711 349.912 259.405 312.689 259.405ZM309.645 361.896C333.845 361.896 349.014 345.558 349.014 321.613C349.014 295.275 329.305 279.265 309.096 279.265C289.935 279.265 267.381 293.725 267.381 321.613C267.381 345.229 284.347 361.896 309.645 361.896ZM280.904 322.975C280.904 294.57 301.312 287.434 313.786 287.434C330.602 287.434 345.571 298.843 345.571 322.459C345.571 346.919 326.959 358.985 311.641 358.985C300.414 358.985 280.904 352.037 280.904 322.975Z" fill="black"></path>
<path d="M393.145 262.84V380.636L402.525 390.824H426.227V312.325L486.154 390.824H512.001V270.821L501.722 262.84H478.969V328.428L432.364 267.957L418.642 262.84H393.145ZM396.238 379.791V265.563H416.098L482.013 350.87V265.563H500.076V379.791H482.013L414.301 292.089V379.791H396.238Z" fill="black"></path>
<path d="M445.301 197.853C427.631 200.574 418.629 199.502 418.294 194.637C417.959 189.771 426.627 185.978 444.297 183.257C462.014 180.483 471.04 181.529 471.374 186.394C471.709 191.26 463.018 195.079 445.301 197.853Z" fill="black"></path>
<path d="M383.915 130.097L388.162 129.838C395.359 132.94 400.124 136.588 402.457 140.783L404.196 143.22L404.432 146.646L404.378 156.745C420.075 155.789 430.883 153.735 436.801 150.583L438.975 149.553C442.343 147.753 442.779 149.745 440.284 155.531C437.786 161.267 431.77 165.547 422.237 168.371C412.701 171.145 405.362 172.14 400.221 171.357C390.086 195.157 385.324 211.5 385.935 220.387L386.447 227.834C386.505 228.678 387.305 230.15 388.846 232.25C390.387 234.35 392.822 235.299 396.15 235.096C399.527 234.89 403.072 233.852 406.785 231.981C410.543 230.057 414.083 227.498 417.405 224.304L419.293 226.732L419.411 228.445C419.622 231.523 413.143 235.582 399.972 240.622L395.799 240.876C385.318 241.514 376.944 234.72 370.679 220.494L368.442 213.002L367.807 203.767C367.234 195.427 369.293 184.034 373.986 169.589L373.93 168.77C371.501 168.269 366.914 166.854 360.17 164.522C351.886 160.839 346.549 157.225 344.16 153.681L345.813 152.683C354.762 154.432 363 155.625 370.526 156.264L375.592 155.955L377.288 156.675C380.635 148.045 382.706 141.164 383.5 136.03L383.444 135.211L382.263 131.095L383.915 130.097Z" fill="black"></path>
<path d="M329.561 170.874L342.153 170.107C346.834 172.165 349.21 173.715 349.282 174.758C347.889 176.987 342.723 179.121 333.785 181.161C324.847 183.201 319.993 190.95 319.223 204.408L319.397 206.94C319.554 209.224 320.504 211.434 322.247 213.572C323.99 215.709 326.899 216.654 330.972 216.406L331.866 216.351C336.926 215.943 346.403 211.228 360.298 202.206L361.161 203.873L361.274 205.512C349.517 217.345 338.771 223.559 329.035 224.152C312.575 222.711 303.946 216.182 303.147 204.564C305.116 192.579 309.305 183.873 315.716 178.447C321.916 173.583 326.531 171.058 329.561 170.874Z" fill="black"></path>
<path d="M279.304 177.673L289.885 177.029C293.8 178.834 295.792 180.234 295.86 181.227L296.111 184.876C295.133 193.86 286.971 202.109 271.625 209.625L270.955 209.665L271.16 212.644C274.066 216.456 277.257 218.256 280.734 218.044L281.405 218.003C286.737 217.928 293.934 214.149 302.997 206.667L303.701 208.195L303.803 209.684C295.487 219.314 287.231 224.379 279.034 224.878C265.277 223.572 258.045 217.78 257.338 207.503C258.949 196.836 262.459 189.119 267.867 184.352C273.008 180.051 276.821 177.824 279.304 177.673ZM270.386 201.399L270.443 202.218C278.091 199.559 283.687 194.98 287.231 188.483L287.719 186.883L287.673 186.212L286.97 184.685C275.456 189.175 269.929 194.746 270.386 201.399Z" fill="black"></path>
<path d="M244.608 130.204C255.219 132.898 260.596 135.288 260.739 137.373C261.832 137.307 263.166 140.391 264.743 146.627C264.787 147.272 264.122 151.027 262.749 157.891C261.375 164.755 258.495 175.824 254.109 191.098C249.772 206.368 245.214 221.328 240.436 235.978C238.542 241.079 237.723 246.937 237.978 253.552C239.067 256.328 241.25 257.616 244.529 257.416L246.392 257.303C248.378 257.182 250.532 256.577 252.851 255.488L252.882 255.935C253.376 259.495 251.476 261.605 247.182 262.265C242.941 262.972 238.762 262.055 234.647 259.513C230.531 256.972 228.289 253.02 227.921 247.658C226.286 242.025 225.623 236.007 225.931 229.607C226.235 223.157 231.693 197.349 242.304 152.181C243.557 147.917 244.477 142.801 245.064 136.832C244.323 135.481 243.86 133.465 243.675 130.784L244.608 130.204Z" fill="black"></path>
<path d="M241.714 121.78C247.674 121.417 252.086 123.193 254.949 127.107C254.04 127.661 253.312 127.954 252.765 127.987C251.225 128.081 249.153 127.684 246.548 126.796C240.984 127.134 234.714 131.33 227.735 139.383C221.413 148.991 214.138 168.679 205.909 198.445C205.93 198.743 205.537 200.287 204.732 203.079C212.129 204.024 218.289 203.649 223.21 201.953L225.338 200.253L226.19 201.772L226.6 207.73C226.672 208.772 226.186 209.325 225.143 209.389C219.828 211.158 212.7 211.592 203.759 210.691C197.336 247.128 194.63 274.14 195.64 291.727C194.879 300.249 193.445 305.148 191.338 306.423L187.538 306.654C186.446 306.721 185.295 304.497 184.087 299.984C182.552 291.452 181.535 279.923 181.034 265.396C180.534 250.868 182.654 230.921 187.394 205.555L176.583 200.679C173.662 195.922 176.862 195.303 186.182 198.824L188.674 200.242C199.545 149.425 217.225 123.271 241.714 121.78Z" fill="black"></path>
<path d="M162.324 184.796L172.904 184.152C176.819 185.958 178.811 187.357 178.879 188.35L179.13 191.999C178.152 200.983 169.99 209.232 154.645 216.748L153.974 216.789L154.179 219.768C157.085 223.579 160.277 225.379 163.754 225.167L164.424 225.126C169.756 225.051 176.954 221.272 186.016 213.791L186.72 215.318L186.823 216.808C178.506 226.438 170.25 231.502 162.054 232.001C148.297 230.695 141.065 224.904 140.358 214.626C141.968 203.959 145.478 196.242 150.887 191.475C156.028 187.174 159.84 184.948 162.324 184.796ZM153.406 208.522L153.462 209.341C161.111 206.682 166.707 202.104 170.25 195.606L170.739 194.006L170.693 193.336L169.989 191.808C158.476 196.298 152.948 201.869 153.406 208.522Z" fill="black"></path>
<path d="M83.9576 137.743L88.3537 137.475C100.772 136.719 109.376 137.442 114.167 139.643C122.045 141.057 130.173 146.446 138.548 155.807C140.618 160.517 141.713 163.741 141.832 165.479C142.115 169.599 140.264 175.321 136.279 182.643C128.542 190.543 121.127 195.506 114.033 197.533C114.054 197.831 112.964 198.67 110.765 200.051C119.908 230.006 127.097 248.588 132.331 255.798C136.603 263.514 139.918 268.198 142.277 269.85C144.685 271.498 145.892 272.372 145.899 272.471C145.909 272.62 146.586 273.401 147.93 274.815C149.275 276.229 148.155 276.995 144.572 277.113C141.042 277.278 137.136 275.971 132.854 273.19C128.573 270.41 121.511 261.292 111.669 245.838L102.632 228.665C99.5792 221.272 96.7881 213.69 94.2582 205.917C84.8936 208.282 80.2539 210.085 80.3393 211.326C76.2145 228.229 73.5069 241.805 72.2166 252.054C70.3557 255.458 67.3697 257.734 63.2586 258.882C59.5055 260.157 57.2441 258.101 56.4745 252.714L59.6325 227.918C62.88 212.763 66.7789 194.752 71.3294 173.885L73.4339 160.968L71.5712 161.082C63.9417 163.291 59.2577 164.449 57.5191 164.555C51.9538 165.592 48.4758 166.153 47.0849 166.237L46.3398 166.283C45.4954 166.334 42.748 166.277 38.0977 166.112C35.2101 164.742 32.488 162.514 29.9314 159.43C27.3251 156.348 26.4179 154.035 27.2095 152.491C27.9978 150.897 29.286 150.046 31.0743 149.937C32.8128 149.831 42.8585 146.851 61.2112 140.998C69.3716 139.254 76.9537 138.169 83.9576 137.743ZM88.0747 156.263C88.6244 164.256 86.6762 179.082 82.2301 200.741C83.1242 200.687 83.5781 200.759 83.5917 200.958C86.3237 200.791 90.4289 199.195 95.9073 196.169C98.2574 195.528 101.731 193.447 106.327 189.926C107.271 189.869 108.79 188.754 110.886 186.582C122.989 177.619 128.772 169.24 128.236 161.445L127.949 157.275C127.861 155.984 125.254 154.348 120.13 152.367C116.783 151.573 113.927 151.024 111.562 150.72C98.8226 153.34 90.9936 155.188 88.0747 156.263Z" fill="black"></path>
</svg></svg></g></g><defs><clipPath id="SvgjsClipPath1046"><rect width="1000" height="1000" x="0" y="0" rx="250" ry="250"></rect></clipPath></defs></svg></g></svg>